<?xml version="1.0" encoding="UTF-8"?><svg xmlns="http://www.w3.org/2000/svg" xmlns:xlink="http://www.w3.org/1999/xlink" viewBox="0 0 541.94 162.44"><defs><style>.cls-1{fill:url(#linear-gradient);}.cls-1,.cls-2,.cls-3,.cls-4,.cls-5,.cls-6,.cls-7,.cls-8{stroke-width:0px;}.cls-2{fill:#f7f6f4;}.cls-3{fill:none;}.cls-4{fill:url(#linear-gradient-2);}.cls-5{fill:#81b7c2;}.cls-6{fill:url(#linear-gradient-3);}.cls-7{fill:#3f485b;}.cls-8{fill:url(#linear-gradient-4);}</style><linearGradient id="linear-gradient" x1="35.18" y1="99.64" x2="54.69" y2="46.55" gradientUnits="userSpaceOnUse"><stop offset="0" stop-color="#618992"/><stop offset=".61" stop-color="#81b7c2"/></linearGradient><linearGradient id="linear-gradient-2" x1="88.45" y1="150.89" x2="21.83" y2="82.64" xlink:href="#linear-gradient"/><linearGradient id="linear-gradient-3" x1="147.69" y1="117.94" x2="72.68" y2="117.94" xlink:href="#linear-gradient"/><linearGradient id="linear-gradient-4" x1="156" y1="53.7" x2="156" y2="110.1" gradientUnits="userSpaceOnUse"><stop offset="0" stop-color="#618992"/><stop offset=".61" stop-color="#81b7c2"/></linearGradient></defs><g id="HD_Txt"><path class="cls-2" d="M241.77,24.8v49.93h-12.16v-20.56h-18.92v20.56h-12.16V24.8h12.16v19.56h18.92v-19.56h12.16Z"/><path class="cls-2" d="M290.49,24.8l-17.28,33.43v16.5h-12.17v-16.5l-17.28-33.43h13.8l9.67,20.91,9.6-20.91h13.66Z"/><path class="cls-2" d="M342.28,24.8l-17.71,49.93h-15.22l-17.71-49.93h12.95l12.38,37.7,12.45-37.7h12.88Z"/><path class="cls-2" d="M356.65,34.54v10.1h16.29v9.39h-16.29v10.95h18.42v9.75h-30.59V24.8h30.59v9.74h-18.42Z"/><path class="cls-5" d="M227.92,91.49c3.95,2.01,6.97,4.89,9.08,8.62,2.1,3.74,3.16,8.14,3.16,13.19s-1.05,9.45-3.16,13.16-5.13,6.55-9.08,8.51c-3.95,1.96-8.62,2.94-14.01,2.94h-15.39v-49.44h15.39c5.39,0,10.06,1,14.01,3.01ZM228.53,127.53c3.36-3.38,5.04-8.12,5.04-14.22s-1.69-10.95-5.07-14.4c-3.38-3.45-8.24-5.18-14.58-5.18h-8.94v38.87h8.94c6.38,0,11.25-1.69,14.61-5.07Z"/><path class="cls-5" d="M277.61,88.48l-16.1,30.78v18.66h-6.46v-18.66l-16.17-30.78h7.16l12.2,25.04,12.2-25.04h7.16Z"/><path class="cls-5" d="M320.45,137.92h-6.46l-25.96-39.37v39.37h-6.45v-49.51h6.45l25.96,39.3v-39.3h6.46v49.51Z"/><path class="cls-5" d="M357.84,126.92h-21.57l-3.97,11h-6.81l17.88-49.16h7.45l17.8,49.16h-6.81l-3.97-11ZM355.99,121.67l-8.94-24.97-8.94,24.97h17.87Z"/><path class="cls-5" d="M423.73,88.83v49.09h-6.45v-36.6l-16.32,36.6h-4.54l-16.39-36.67v36.67h-6.45v-49.09h6.95l18.16,40.58,18.16-40.58h6.88Z"/><path class="cls-5" d="M441.11,88.48v49.44h-6.45v-49.44h6.45Z"/><path class="cls-5" d="M451.54,100.15c2.17-3.85,5.14-6.87,8.9-9.04,3.76-2.17,7.93-3.26,12.52-3.26,5.39,0,10.09,1.3,14.11,3.9,4.02,2.6,6.95,6.29,8.8,11.07h-7.73c-1.37-2.98-3.35-5.27-5.92-6.88-2.58-1.61-5.66-2.41-9.26-2.41s-6.55.8-9.29,2.41c-2.74,1.61-4.9,3.89-6.45,6.85-1.56,2.96-2.34,6.42-2.34,10.39s.78,7.37,2.34,10.32c1.56,2.96,3.71,5.24,6.45,6.84,2.74,1.61,5.84,2.41,9.29,2.41s6.68-.79,9.26-2.38c2.58-1.58,4.55-3.87,5.92-6.84h7.73c-1.84,4.73-4.78,8.38-8.8,10.96-4.02,2.58-8.72,3.87-14.11,3.87-4.59,0-8.76-1.08-12.52-3.23-3.76-2.15-6.73-5.14-8.9-8.97-2.18-3.83-3.26-8.16-3.26-12.98s1.09-9.16,3.26-13.02Z"/><path class="cls-5" d="M510.94,136.68c-2.58-1.16-4.6-2.77-6.06-4.82-1.47-2.06-2.22-4.43-2.27-7.13h6.88c.24,2.32,1.19,4.27,2.87,5.85,1.68,1.59,4.13,2.38,7.34,2.38s5.5-.77,7.27-2.31c1.77-1.54,2.66-3.51,2.66-5.92,0-1.89-.52-3.43-1.56-4.61s-2.34-2.08-3.9-2.7c-1.56-.61-3.67-1.28-6.31-1.99-3.26-.85-5.88-1.7-7.84-2.55-1.96-.85-3.64-2.19-5.04-4.01-1.39-1.82-2.09-4.27-2.09-7.34,0-2.7.69-5.08,2.06-7.16,1.37-2.08,3.3-3.69,5.78-4.82,2.48-1.14,5.33-1.7,8.55-1.7,4.63,0,8.43,1.16,11.39,3.47,2.95,2.32,4.62,5.39,5,9.22h-7.09c-.24-1.89-1.23-3.56-2.98-5-1.75-1.44-4.07-2.16-6.95-2.16-2.7,0-4.89.7-6.6,2.09s-2.55,3.35-2.55,5.85c0,1.8.51,3.26,1.53,4.4,1.02,1.13,2.27,2,3.76,2.59,1.49.59,3.58,1.27,6.28,2.02,3.26.9,5.89,1.78,7.87,2.66,1.99.88,3.69,2.22,5.11,4.04,1.42,1.82,2.13,4.29,2.13,7.41,0,2.41-.64,4.68-1.92,6.81-1.28,2.13-3.17,3.85-5.67,5.18-2.51,1.32-5.46,1.99-8.87,1.99s-6.18-.58-8.76-1.74Z"/></g><g id="Data"><polygon class="cls-1" points="7.19 81.12 49.71 154.77 49.71 7.48 7.19 81.12"/><polygon class="cls-4" points="49.71 154.76 134.75 154.76 7.19 81.12 49.71 154.76"/><polygon class="cls-6" points="134.75 154.76 177.27 81.11 49.71 154.76 134.75 154.76"/><polygon class="cls-8" points="177.26 81.11 134.74 7.47 134.74 154.76 177.26 81.11"/><polygon class="cls-2" points="134.74 7.47 49.7 7.47 177.26 81.12 134.74 7.47"/><path class="cls-7" d="M130.97,18.25v17.86h-4.35v-7.35h-6.77v7.35h-4.35v-17.86h4.35v7h6.77v-7h4.35Z"/><circle class="cls-3" cx="123.23" cy="27.18" r="19.71"/></g></svg>