<?xml version="1.0" encoding="UTF-8" standalone="no"?>
<svg
   viewBox="0 0 756.89343 163.32156"
   version="1.1"
   id="svg19"
   sodipodi:docname="HD-Logo-dk.svg"
   width="756.89343"
   height="163.32156"
   inkscape:version="1.4 (86a8ad7, 2024-10-11)"
   xmlns:inkscape="http://www.inkscape.org/namespaces/inkscape"
   xmlns:sodipodi="http://sodipodi.sourceforge.net/DTD/sodipodi-0.dtd"
   xmlns:xlink="http://www.w3.org/1999/xlink"
   xmlns="http://www.w3.org/2000/svg"
   xmlns:svg="http://www.w3.org/2000/svg">
  <sodipodi:namedview
     id="namedview19"
     pagecolor="#ffffff"
     bordercolor="#000000"
     borderopacity="0.25"
     inkscape:showpageshadow="2"
     inkscape:pageopacity="0.0"
     inkscape:pagecheckerboard="0"
     inkscape:deskcolor="#d1d1d1"
     inkscape:zoom="1.1343507"
     inkscape:cx="201.87761"
     inkscape:cy="241.54788"
     inkscape:window-width="2560"
     inkscape:window-height="1511"
     inkscape:window-x="-9"
     inkscape:window-y="-9"
     inkscape:window-maximized="1"
     inkscape:current-layer="svg19" />
  <defs
     id="defs4">
    <style
       id="style1">.cls-1{fill:url(#linear-gradient);}.cls-1,.cls-2,.cls-3,.cls-4,.cls-5,.cls-6,.cls-7,.cls-8{stroke-width:0px;}.cls-2{fill:none;}.cls-3{fill:url(#linear-gradient-2);}.cls-4{fill:#81b7c2;}.cls-5{fill:url(#linear-gradient-3);}.cls-6{fill:#3f485b;}.cls-7{fill:#fff;}.cls-8{fill:url(#linear-gradient-4);}</style>
    <linearGradient
       id="linear-gradient"
       x1="35.18"
       y1="99.639999"
       x2="54.689999"
       y2="46.549999"
       gradientUnits="userSpaceOnUse">
      <stop
         offset="0"
         stop-color="#618992"
         id="stop1" />
      <stop
         offset=".61"
         stop-color="#81b7c2"
         id="stop2" />
    </linearGradient>
    <linearGradient
       id="linear-gradient-2"
       x1="88.449997"
       y1="150.89"
       x2="21.83"
       y2="82.639999"
       xlink:href="#linear-gradient" />
    <linearGradient
       id="linear-gradient-3"
       x1="147.69"
       y1="117.94"
       x2="72.68"
       y2="117.94"
       xlink:href="#linear-gradient" />
    <linearGradient
       id="linear-gradient-4"
       x1="156"
       y1="53.700001"
       x2="156"
       y2="110.1"
       gradientUnits="userSpaceOnUse">
      <stop
         offset="0"
         stop-color="#618992"
         id="stop3" />
      <stop
         offset=".61"
         stop-color="#81b7c2"
         id="stop4" />
    </linearGradient>
    <linearGradient
       inkscape:collect="always"
       xlink:href="#linear-gradient"
       id="linearGradient19"
       gradientUnits="userSpaceOnUse"
       x1="35.18"
       y1="99.639999"
       x2="54.689999"
       y2="46.549999" />
  </defs>
  <g
     id="g20"
     transform="translate(2.4934328,31.16791)">
    <path
       class="cls-6"
       d="M 241.77,24.8 V 74.73 H 229.61 V 54.17 H 210.69 V 74.73 H 198.53 V 24.8 h 12.16 v 19.56 h 18.92 V 24.8 Z"
       id="path4" />
    <path
       class="cls-6"
       d="m 290.49,24.8 -17.28,33.43 v 16.5 H 261.04 V 58.23 L 243.76,24.8 h 13.8 l 9.67,20.91 9.6,-20.91 z"
       id="path5" />
    <path
       class="cls-6"
       d="M 342.28,24.8 324.57,74.73 H 309.35 L 291.64,24.8 h 12.95 l 12.38,37.7 12.45,-37.7 h 12.88 z"
       id="path6" />
    <path
       class="cls-6"
       d="m 356.65,34.54 v 10.1 h 16.29 v 9.39 h -16.29 v 10.95 h 18.42 v 9.75 H 344.48 V 24.8 h 30.59 v 9.74 z"
       id="path7" />
  </g>
  <g
     id="g19"
     transform="translate(210.59213,-32.258787)">
    <path
       class="cls-4"
       d="m 227.92,91.49 c 3.95,2.01 6.97,4.89 9.08,8.62 2.1,3.74 3.16,8.14 3.16,13.19 0,5.05 -1.05,9.45 -3.16,13.16 -2.11,3.71 -5.13,6.55 -9.08,8.51 -3.95,1.96 -8.62,2.94 -14.01,2.94 H 198.52 V 88.47 h 15.39 c 5.39,0 10.06,1 14.01,3.01 z m 0.61,36.04 c 3.36,-3.38 5.04,-8.12 5.04,-14.22 0,-6.1 -1.69,-10.95 -5.07,-14.4 -3.38,-3.45 -8.24,-5.18 -14.58,-5.18 h -8.94 v 38.87 h 8.94 c 6.38,0 11.25,-1.69 14.61,-5.07 z"
       id="path8" />
    <path
       class="cls-4"
       d="m 277.61,88.48 -16.1,30.78 v 18.66 h -6.46 V 119.26 L 238.88,88.48 h 7.16 l 12.2,25.04 12.2,-25.04 h 7.16 z"
       id="path9" />
    <path
       class="cls-4"
       d="m 320.45,137.92 h -6.46 L 288.03,98.55 v 39.37 h -6.45 V 88.41 h 6.45 l 25.96,39.3 v -39.3 h 6.46 z"
       id="path10" />
    <path
       class="cls-4"
       d="m 357.84,126.92 h -21.57 l -3.97,11 h -6.81 l 17.88,-49.16 h 7.45 l 17.8,49.16 h -6.81 z m -1.85,-5.25 -8.94,-24.97 -8.94,24.97 h 17.87 z"
       id="path11" />
    <path
       class="cls-4"
       d="m 423.73,88.83 v 49.09 h -6.45 v -36.6 l -16.32,36.6 h -4.54 l -16.39,-36.67 v 36.67 h -6.45 V 88.83 h 6.95 l 18.16,40.58 18.16,-40.58 z"
       id="path12" />
    <path
       class="cls-4"
       d="m 441.11,88.48 v 49.44 h -6.45 V 88.48 Z"
       id="path13" />
    <path
       class="cls-4"
       d="m 451.54,100.15 c 2.17,-3.85 5.14,-6.87 8.9,-9.04 3.76,-2.17 7.93,-3.26 12.52,-3.26 5.39,0 10.09,1.3 14.11,3.9 4.02,2.6 6.95,6.29 8.8,11.07 h -7.73 c -1.37,-2.98 -3.35,-5.27 -5.92,-6.88 -2.58,-1.61 -5.66,-2.41 -9.26,-2.41 -3.6,0 -6.55,0.8 -9.29,2.41 -2.74,1.61 -4.9,3.89 -6.45,6.85 -1.56,2.96 -2.34,6.42 -2.34,10.39 0,3.97 0.78,7.37 2.34,10.32 1.56,2.96 3.71,5.24 6.45,6.84 2.74,1.61 5.84,2.41 9.29,2.41 3.45,0 6.68,-0.79 9.26,-2.38 2.58,-1.58 4.55,-3.87 5.92,-6.84 h 7.73 c -1.84,4.73 -4.78,8.38 -8.8,10.96 -4.02,2.58 -8.72,3.87 -14.11,3.87 -4.59,0 -8.76,-1.08 -12.52,-3.23 -3.76,-2.15 -6.73,-5.14 -8.9,-8.97 -2.18,-3.83 -3.26,-8.16 -3.26,-12.98 0,-4.82 1.09,-9.16 3.26,-13.02 z"
       id="path14" />
    <path
       class="cls-4"
       d="m 510.94,136.68 c -2.58,-1.16 -4.6,-2.77 -6.06,-4.82 -1.47,-2.06 -2.22,-4.43 -2.27,-7.13 h 6.88 c 0.24,2.32 1.19,4.27 2.87,5.85 1.68,1.59 4.13,2.38 7.34,2.38 3.21,0 5.5,-0.77 7.27,-2.31 1.77,-1.54 2.66,-3.51 2.66,-5.92 0,-1.89 -0.52,-3.43 -1.56,-4.61 -1.04,-1.18 -2.34,-2.08 -3.9,-2.7 -1.56,-0.61 -3.67,-1.28 -6.31,-1.99 -3.26,-0.85 -5.88,-1.7 -7.84,-2.55 -1.96,-0.85 -3.64,-2.19 -5.04,-4.01 -1.39,-1.82 -2.09,-4.27 -2.09,-7.34 0,-2.7 0.69,-5.08 2.06,-7.16 1.37,-2.08 3.3,-3.69 5.78,-4.82 2.48,-1.14 5.33,-1.7 8.55,-1.7 4.63,0 8.43,1.16 11.39,3.47 2.95,2.32 4.62,5.39 5,9.22 h -7.09 c -0.24,-1.89 -1.23,-3.56 -2.98,-5 -1.75,-1.44 -4.07,-2.16 -6.95,-2.16 -2.7,0 -4.89,0.7 -6.6,2.09 -1.71,1.39 -2.55,3.35 -2.55,5.85 0,1.8 0.51,3.26 1.53,4.4 1.02,1.13 2.27,2 3.76,2.59 1.49,0.59 3.58,1.27 6.28,2.02 3.26,0.9 5.89,1.78 7.87,2.66 1.99,0.88 3.69,2.22 5.11,4.04 1.42,1.82 2.13,4.29 2.13,7.41 0,2.41 -0.64,4.68 -1.92,6.81 -1.28,2.13 -3.17,3.85 -5.67,5.18 -2.51,1.32 -5.46,1.99 -8.87,1.99 -3.41,0 -6.18,-0.58 -8.76,-1.74 z"
       id="path15" />
  </g>
  <g
     id="Data">
    <polygon
       class="cls-1"
       points="7.19,81.12 49.71,154.77 49.71,7.48 "
       id="polygon15"
       style="fill:url(#linearGradient19)" />
    <polygon
       class="cls-3"
       points="49.71,154.76 134.75,154.76 7.19,81.12 "
       id="polygon16"
       style="fill:url(#linear-gradient-2)" />
    <polygon
       class="cls-5"
       points="134.75,154.76 177.27,81.11 49.71,154.76 "
       id="polygon17"
       style="fill:url(#linear-gradient-3)" />
    <polygon
       class="cls-8"
       points="177.26,81.11 134.74,7.47 134.74,154.76 "
       id="polygon18"
       style="fill:url(#linear-gradient-4)" />
    <polygon
       class="cls-6"
       points="134.74,7.47 49.7,7.47 177.26,81.12 "
       id="polygon19" />
    <path
       class="cls-7"
       d="m 130.97,18.25 v 17.86 h -4.35 v -7.35 h -6.77 v 7.35 H 115.5 V 18.25 h 4.35 v 7 h 6.77 v -7 z"
       id="path19" />
    <circle
       class="cls-2"
       cx="123.23"
       cy="27.18"
       r="19.709999"
       id="circle19" />
  </g>
</svg>
